<?xml version="1.0" standalone="no"?>
<!DOCTYPE svg PUBLIC "-//W3C//DTD SVG 1.1//EN" "http://www.w3.org/Graphics/SVG/1.1/DTD/svg11.dtd">
<svg xmlns="http://www.w3.org/2000/svg" aria-hidden="true" class="rh-logo" version="1.1" id="svg156" width="932" height="159" viewBox="0 0 932 159"><defs id="defs106"><style id="style104">.rh-logo-type{fill:#fff}</style></defs><g id="Two_lines" data-name="Two lines"><g id="Two_line_logo" data-name="Two line logo"><path class="rh-logo-type" d="M316.62 7.25h25.44c11.13 0 18.64 6.72 18.64 16.56 0 7.36-4.47 13-11.51 15.36l12.48 24.08h-9.29l-11.6-23H325v23h-8.4zm8.4 7.36v18.72h16.33c6.55 0 10.87-3.76 10.87-9.36s-4.32-9.36-10.87-9.36z" id="path110"/><path class="rh-logo-type" d="M385.5 64a21 21 0 01-21.36-21.12c0-11.76 9-21 20.4-21 11.2 0 19.68 9.28 19.68 21.28v2.32h-32.16a13.74 13.74 0 0013.76 11.68 15.84 15.84 0 0010.32-3.6l5.13 5A24.33 24.33 0 01385.5 64zm-13.36-24.51h24.16c-1.19-6.24-6-10.88-11.92-10.88-6.16 0-11.04 4.39-12.24 10.88z" id="path112"/><path class="rh-logo-type" d="M443.18 59.41a19.23 19.23 0 01-12.48 4.48c-11.52 0-20.56-9.2-20.56-21a20.72 20.72 0 0133-17V7.25l8-1.76v57.76h-7.92zm-11.36-2.48a14.67 14.67 0 0011.28-4.88V33.57a14.89 14.89 0 00-11.28-4.8 13.63 13.63 0 00-13.84 14 13.77 13.77 0 0013.84 14.16z" id="path114"/><path class="rh-logo-type" d="M478.22 7.25h8.4v24h29.76v-24h8.4v56h-8.4v-24.4h-29.76v24.4h-8.4z" id="path116"/><path class="rh-logo-type" d="M532.38 51.57c0-7.68 6.24-12.4 16.48-12.4A28.75 28.75 0 01560 41.41v-4.32c0-5.76-3.44-8.64-9.92-8.64-3.76 0-7.6 1-12.64 3.44l-3-6c6.08-2.88 11.36-4.16 16.72-4.16 10.56 0 16.64 5.2 16.64 14.56v27H560v-3.56A19.32 19.32 0 01547.34 64c-8.88 0-14.96-5.07-14.96-12.43zm16.8 6.48A15.66 15.66 0 00560 54.21v-7a21.15 21.15 0 00-10.48-2.48c-5.84 0-9.44 2.64-9.44 6.72-.02 3.88 3.66 6.6 9.1 6.6z" id="path118"/><path class="rh-logo-type" d="M580.7 29.25h-8.64v-6.72h8.64v-10.4l7.92-1.92v12.32h12v6.72h-12v22.08c0 4.16 1.68 5.68 6 5.68a15.72 15.72 0 005.84-1v6.72a26.5 26.5 0 01-7.6 1.2c-7.92 0-12.16-3.76-12.16-10.8z" id="path120"/><path class="rh-logo-type" d="M359 130.21l7.59 7.52a30.76 30.76 0 01-23 10.32c-16.88 0-29.84-12.56-29.84-28.8 0-16.24 13-28.88 29.84-28.88 9 0 18.09 4.08 23.28 10.48l-7.83 7.76a19.52 19.52 0 00-15.45-7.6c-10.16 0-17.92 7.84-17.92 18.24A17.8 17.8 0 00344 137.33a19.24 19.24 0 0015-7.12z" id="path122"/><path class="rh-logo-type" d="M381.74 129.81c0 5.36 3.44 8.8 8.64 8.8a10.05 10.05 0 008.65-4.16v-28.88h11v41.68H399v-3.36a17.79 17.79 0 01-11.77 4.16c-9.68 0-16.48-6.88-16.48-16.64v-25.84h11z" id="path124"/><path class="rh-logo-type" d="M420.46 135c4.88 3.2 9.12 4.72 13.52 4.72 4.88 0 8.08-1.76 8.08-4.4 0-2.16-1.6-3.36-5.2-3.92l-8-1.2c-8.24-1.28-12.64-5.36-12.64-12.08 0-8.08 6.72-13.2 17.36-13.2a30.75 30.75 0 0117.12 5.2l-5.28 7c-4.56-2.72-8.64-4-12.88-4-4 0-6.56 1.6-6.56 4.08 0 2.24 1.6 3.36 5.68 3.92l8 1.2c8.16 1.2 12.72 5.44 12.72 11.92 0 7.84-7.76 13.76-18.24 13.76-7.6 0-14.4-2-19.12-5.76z" id="path126"/><path class="rh-logo-type" d="M462.7 114.77h-8.56v-9.2h8.56V94.93l11-2.48v13.12h11.8v9.2h-11.84v18.48c0 3.92 1.52 5.36 5.76 5.36a16.86 16.86 0 005.84-1v9a34 34 0 01-8.48 1.28c-9.28 0-14.08-4.24-14.08-12.4z" id="path128"/><path class="rh-logo-type" d="M510.86 104.77c12.48 0 22.24 9.52 22.24 21.68s-9.76 21.6-22.24 21.6c-12.48 0-22.24-9.44-22.24-21.6 0-12.16 9.76-21.68 22.24-21.68zm11.52 21.68c0-6.88-5-12.16-11.52-12.16s-11.52 5.28-11.52 12.16c0 6.72 5 12.08 11.52 12.08s11.52-5.36 11.52-12.08z" id="path130"/><path class="rh-logo-type" d="M539.82 105.57h11v3.12a16.21 16.21 0 0110.88-3.92 15 15 0 0112.52 6.23 17.16 17.16 0 0113.78-6.23c9.36 0 15.91 6.8 15.91 16.56v25.92h-11v-24.32c0-5.28-3-8.72-7.83-8.72a9.37 9.37 0 00-8 4.16 18.89 18.89 0 01.23 3v25.92h-11v-24.36c0-5.28-3-8.72-7.84-8.72a9.3 9.3 0 00-7.76 3.76v29.28h-11z" id="path132"/><path class="rh-logo-type" d="M632.78 148.05c-12.64 0-22.4-9.44-22.4-21.6a21.28 21.28 0 0121.44-21.6c11.84 0 20.64 9.6 20.64 22.4v2.88h-31a12 12 0 0011.84 8.72 13.12 13.12 0 009.2-3.36l7.2 6.56a25 25 0 01-16.92 6zm-11.44-25.76h20.4c-1.36-5-5.36-8.4-10.16-8.4-5.04 0-8.88 3.28-10.24 8.4z" id="path134"/><path class="rh-logo-type" d="M659.18 105.57h11v4.56a13.26 13.26 0 0111.12-5.52 9.44 9.44 0 014.56 1v9.6a14 14 0 00-5.6-1.12 11 11 0 00-10.08 6.24v27h-11z" id="path136"/><path class="rh-logo-type" d="M708.54 91.25h28.08c11 0 18.8 7.28 18.8 17.6 0 10-7.92 17.28-18.8 17.28h-16.48v21.12h-11.6zm11.6 10v15.28h15.2c5 0 8.32-3 8.32-7.6s-3.28-7.68-8.32-7.68z" id="path138"/><path class="rh-logo-type" d="M780.14 104.77c12.48 0 22.24 9.52 22.24 21.68s-9.76 21.6-22.24 21.6c-12.48 0-22.24-9.44-22.24-21.6 0-12.16 9.76-21.68 22.24-21.68zm11.52 21.68c0-6.88-5-12.16-11.52-12.16s-11.52 5.28-11.52 12.16c0 6.72 5 12.08 11.52 12.08s11.52-5.36 11.52-12.08z" id="path140"/><path class="rh-logo-type" d="M809.1 105.57h11v4.56a13.26 13.26 0 0111.12-5.52 9.44 9.44 0 014.56 1v9.6a14 14 0 00-5.6-1.12 11 11 0 00-10.08 6.24v27h-11z" id="path142"/><path class="rh-logo-type" d="M848 114.77h-8.56v-9.2H848V94.93l11-2.48v13.12h11.84v9.2h-11.9v18.48c0 3.92 1.52 5.36 5.76 5.36a16.86 16.86 0 005.84-1v9a34 34 0 01-8.48 1.28c-9.28 0-14.08-4.24-14.08-12.4z" id="path144"/><path class="rh-logo-type" d="M874.22 135.17c0-7.92 6.4-12.64 17.12-12.64a33.71 33.71 0 0110.16 1.6v-3c0-4.8-3-7.28-8.8-7.28-3.52 0-7.44 1.12-12.72 3.44l-4-8.08a43.46 43.46 0 0118.56-4.48c11.28 0 17.76 5.6 17.76 15.44v27h-10.8v-2.88a19.81 19.81 0 01-12.08 3.6c-8.96.11-15.2-5.12-15.2-12.72zm18.08 5a15.78 15.78 0 009.2-2.64v-6.24a24.22 24.22 0 00-8.8-1.52c-5 0-8 2-8 5.2s2.96 5.16 7.6 5.16z" id="path146"/><path class="rh-logo-type" d="M931.58 147.25h-11v-56l11-2.4z" id="path148"/><g id="Hat_icon" data-name="Hat icon"><path id="Red_hat" data-name="Red hat" d="M127 90.24c12.5 0 30.61-2.58 30.61-17.46a14 14 0 00-.31-3.42L149.82 37c-1.72-7.12-3.23-10.35-15.74-16.6-9.7-5-30.82-13.15-37.07-13.15-5.83 0-7.55 7.54-14.45 7.54-6.68 0-11.64-5.6-17.89-5.6-6 0-9.92 4.1-12.93 12.5 0 0-8.41 23.72-9.49 27.16a6.43 6.43 0 00-.25 1.94c0 9.21 36.32 39.45 85 39.45zm32.55-11.42c1.72 8.19 1.72 9.05 1.72 10.13 0 14-15.73 21.77-36.43 21.77-46.77 0-87.73-27.37-87.73-45.48a18.32 18.32 0 011.51-7.33C21.77 58.77 0 61.79 0 81c0 31.48 74.59 70.28 133.65 70.28 45.27 0 56.7-20.48 56.7-36.65 0-12.75-11-27.19-30.83-35.81z" fill="#e00"/><path class="rh-logo-band" id="Black_band" data-name="Black band" d="M159.52 78.82c1.72 8.19 1.72 9.05 1.72 10.13 0 14-15.73 21.77-36.43 21.77-46.77 0-87.73-27.37-87.73-45.48a18.32 18.32 0 011.51-7.33l3.66-9.06a6.43 6.43 0 00-.25 1.94c0 9.21 36.32 39.45 85 39.45 12.5 0 30.61-2.58 30.61-17.46a14 14 0 00-.31-3.42z"/></g><path id="Dividing_line" data-name="Dividing line" class="rh-logo-type" d="M253.47 158.75a2.25 2.25 0 01-2.25-2.25V2.25a2.25 2.25 0 014.5 0V156.5a2.25 2.25 0 01-2.25 2.25z"/></g></g></svg>